# AST/ASF file generated using VICON BodyLanguage
# -----------------------------------------------
:version 1.10
:name VICON
:units
  mass 1.0
  length 0.45
  angle deg
:documentation
   .ast/.asf automatically generated from VICON data using
   VICON BodyBuilder and BodyLanguage model FoxedUp or BRILLIANT.MOD
:root
   order TX TY TZ RX RY RZ
   axis XYZ
   position 0 0 0  
   orientation 0 0 0 
:bonedata
  begin
     id 1 
     name lhipjoint
     direction 0.671379 -0.66392 0.329334 
     length 2.38647 
     axis 0 0 0  XYZ
  end
  begin
     id 2 
     name lfemur
     direction 0.34202 -0.939693 0  
     length 6.48179  
     axis 0 0 20  XYZ
    dof rx ry rz
    limits (-160.0 20.0)
           (-70.0 70.0)
           (-60.0 70.0)
  end
  begin
     id 3 
     name ltibia
     direction 0.34202 -0.939693 0   
     length 6.86524   
     axis 0 0 20   XYZ
    dof rx
    limits (-10.0 170.0)
  end
  begin
     id 4 
     name lfoot
     direction 0.204886 -0.562919 0.800715   
     length 1.73031   
     axis -90 7.62852e-016 20   XYZ
    dof rx rz
    limits (-45.0 90.0)
           (-70.0 20.0)
  end
  begin
     id 5 
     name ltoes
     direction 1.53548e-011 -4.21841e-011 1   
     length 0.828161   
     axis -90 7.62852e-016 20   XYZ
    dof rx
    limits (-90.0 20.0)
  end
  begin
     id 6 
     name rhipjoint
     direction -0.662732 -0.670855 0.332775   
     length 2.3618  
     axis 0 0 0  XYZ 
  end
  begin
     id 7 
     name rfemur
     direction -0.34202 -0.939693 0   
     length 6.3025   
     axis 0 0 -20   XYZ
    dof rx ry rz
    limits (-160.0 20.0)
           (-70.0 70.0)
           (-70.0 60.0)
  end
  begin
     id 8 
     name rtibia
     direction -0.34202 -0.939693 0   
     length 6.8732   
     axis 0 0 -20   XYZ
    dof rx
    limits (-10.0 170.0)
 end
 begin
     id 9 
     name rfoot
     direction -0.173856 -0.477665 0.861168   
     length 1.54784  
     axis -90 -7.62852e-016 -20   XYZ
    dof rx rz
    limits (-45.0 90.0)
           (-20.0 70.0)
  end
  begin
     id 10 
     name rtoes
     direction -1.53562e-011 -4.21802e-011 1   
     length 0.759618   
     axis -90 -7.62852e-016 -20   XYZ
    dof rx
    limits (-90.0 20.0)
  end
  begin
     id 11 
     name lowerback
     direction -0.0278357 0.999497 -0.0151789   
     length 1.97203   
     axis 0 0 0   XYZ
    dof rx ry rz
    limits (-20.0 45.0)
           (-30.0 30.0)
           (-30.0 30.0)
  end
  begin
     id 12 
     name upperback
     direction -0.00360622 0.997542 0.0699804   
     length 1.94709   
     axis 0 0 0   XYZ
    dof rx ry rz
    limits (-20.0 45.0)
           (-30.0 30.0)
           (-30.0 30.0)
  end
  begin
     id 13 
     name thorax
     direction 0.00907706 0.997048 0.0762461   
     length 1.95722   
     axis 0 0 0   XYZ
    dof rx ry rz
    limits (-20.0 45.0)
           (-30.0 30.0)
           (-30.0 30.0)
  end
  begin
     id 14 
     name lowerneck
     direction -0.0481835 0.99872 -0.0153927   
     length 1.63078   
     axis 0 0 0   XYZ
    dof rx ry rz
    limits (-20.0 45.0)
           (-30.0 30.0)
           (-30.0 30.0)
  end
  begin
     id 15 
     name upperneck
     direction 0.0859716 0.979226 -0.183644   
     length 1.62591   
     axis 0 0 0   XYZ
    dof rx ry rz
    limits (-20.0 45.0)
           (-30.0 30.0)
           (-30.0 30.0)
  end
  begin
     id 16
     name head
     direction 0.0324821 0.997629 -0.0606773  
     length 1.64811  
     axis 0 0 0   XYZ
    dof rx ry rz
    limits (-20.0 45.0)
           (-30.0 30.0)
           (-30.0 30.0)
  end
  begin
     id 17 
     name lclavicle
     direction 0.939609 0.311019 0.142835  
     length 3.70647  
     axis 0 0 0   XYZ
    dof ry rz
    limits (-20.0 10.0)
           (0.0 20.0)
  end
  begin
     id 18 
     name lhumerus
     direction 1 -4.48963e-011 -1.59838e-027   
     length 4.59207   
     axis 180 -30 -90   XYZ
    dof rx ry rz
    limits (-60.0 90.0)
           (-90.0 90.0)
           (-90.0 90.0)
  end
  begin
     id 19
     name lradius
     direction 1 -4.48957e-011 -1.3483e-026   
     length 2.98109   
     axis 180 -30 -90   XYZ
    dof rx
    limits (-10.0 170.0)
  end
  begin
     id 20
     name lwrist
     direction 1 -4.48954e-011 -3.11579e-026   
     length 1.49055   
     axis 2.00652e-014 90 90   XYZ
    dof ry
    limits (-180.0 0.0)
 end
  begin
     id 21 
     name lhand
     direction 1 -4.4911e-011 -6.23158e-026   
     length 0.480203   
     axis 3.97628e-014 90 90   XYZ
    dof rx rz
    limits (-90.0 90.0)
           (-45.0 45.0)
  end
  begin
     id 22 
     name lfingers
     direction 1 -4.48893e-011 -1.24632e-025   
     length 0.387152   
     axis 7.95256e-014 90 90   XYZ
    dof rx
    limits (0.0 90.0)
  end
  begin
     id 23
     name lthumb
     direction 0.707107 -6.35013e-011 0.707107   
     length 0.555875   
     axis -90 45 2.85299e-015   XYZ
    dof rx rz
    limits (-45.0 45.0)
           (-45.0 45.0)
  end
  begin
     id 24 
     name rclavicle
     direction -0.950396 0.30392 0.0661859   
     length 3.70894  
     axis 0 0 0   XYZ 
    dof ry rz
    limits (-10.0 20.0)
           (-20.0 0.0)
  end
  begin
     id 25 
     name rhumerus
     direction -1 -4.48957e-011 -2.96677e-027  
     length 4.76508   
     axis 180 30 90   XYZ
    dof rx ry rz
    limits (-90.0 60.0)
           (-90.0 90.0)
           (-90.0 90.0)
  end
  begin
     id 26 
     name rradius
     direction -1 -4.48974e-011 -1.44501e-026   
     length 2.78902   
     axis 180 30 90   XYZ
    dof rx
    limits (-10.0 170.0)
  end
  begin
     id 27 
     name rwrist
     direction -1 -4.48978e-011 -3.11579e-026   
     length 1.39451   
     axis 2.00652e-014 -90 -90   XYZ
    dof ry
    limits (-180.0 0.0)
  end
  begin
     id 28
     name rhand
     direction -1 -4.48956e-011 -6.23158e-026   
     length 0.721303   
     axis 3.97628e-014 -90 -90   XYZ
    dof rx rz
    limits (-90.0 90.0)
           (-45.0 45.0)
  end
  begin
     id 29
     name rfingers
     direction -1 -4.4899e-011 -1.24632e-025   
     length 0.581533   
     axis 7.95256e-014 -90 -90   XYZ
    dof rx
    limits (0.0 90.0)
  end
  begin
     id 30
     name rthumb
     direction -0.707107 -6.34911e-011 0.707107   
     length 0.834968   
     axis -90 -45 -2.85299e-015   XYZ
    dof rx rz
    limits (-45.0 45.0)
           (-45.0 45.0)
  end
:hierarchy
  begin
    root lhipjoint rhipjoint lowerback
    lhipjoint lfemur
    lfemur ltibia
    ltibia lfoot
    lfoot ltoes
    rhipjoint rfemur
    rfemur rtibia
    rtibia rfoot
    rfoot rtoes
    lowerback upperback
    upperback thorax
    thorax lowerneck lclavicle rclavicle
    lowerneck upperneck
    upperneck head
    lclavicle lhumerus
    lhumerus lradius
    lradius lwrist
    lwrist lhand lthumb
    lhand lfingers
    rclavicle rhumerus
    rhumerus rradius
    rradius rwrist
    rwrist rhand rthumb
    rhand rfingers
  end

#!OML:ASF I:\salsa\salsa 7_09\Patient 1\Session 1\dancerfemale.ASF
:FULLY-SPECIFIED
:DEGREES
132
root 26.0888 15.9037 -0.912981 -35.1958 -88.7054 40.2447
lowerback -5.61248 2.9984 -4.85613
upperback -5.93402 3.96848 -0.167628
thorax -3.33425 2.09436 2.63349
lowerneck -0.522977 -5.81644 -10.62
upperneck 7.7557 -8.62651 12.469
head 3.3746 -4.27215 5.2205
rclavicle -4.33351e-014 3.77691e-015
rhumerus -36.1541 -14.3031 -91.2714
rradius 46.9621
rwrist -16.2143
rhand 1.97112 52.6442
rfingers 7.12502
rthumb 27.477 24.6286
lclavicle -4.33351e-014 3.77691e-015
lhumerus -47.5692 23.9368 73.1545
lradius 37.883
lwrist -15.1529
lhand -16.5547 44.3576
lfingers 7.12502
lthumb 9.66501 74.1159
rfemur -11.5245 1.26214 15.4987
rtibia 24.9735
rfoot -23.9556 -15.7288
rtoes -12.9196
lfemur -14.2222 -0.825979 -24.1455
ltibia 32.8499
lfoot -26.042 1.97635
ltoes -15.3672
133
root 26.0963 15.9002 -0.886855 -33.051 -88.7241 37.9505
lowerback -5.58055 3.04079 -4.85437
upperback -5.84855 4.03102 -0.124471
thorax -3.27058 2.12564 2.67907
lowerneck -0.477362 -5.833 -10.6291
upperneck 7.70966 -8.64906 12.4803
head 3.3569 -4.28501 5.22593
rclavicle 5.25785e-014 -2.18663e-015
rhumerus -36.0216 -14.6184 -91.0914
rradius 46.0088
rwrist -15.3331
rhand 2.18366 52.7818
rfingers 7.12502
rthumb 27.6802 24.7987
lclavicle 5.25785e-014 -2.18663e-015
lhumerus -47.4096 23.9393 73.647
lradius 37.8163
lwrist -15.0411
lhand -16.8027 44.6064
lfingers 7.12502
lthumb 9.42575 74.3756
rfemur -11.4178 1.29961 15.459
rtibia 25.0417
rfoot -23.8757 -15.807
rtoes -13.0811
lfemur -14.1102 -0.780181 -24.2003
ltibia 32.8882
lfoot -26.0133 1.94651
ltoes -15.2891
134
root 26.1034 15.8951 -0.860121 -34.468 -88.6022 39.2363
lowerback -5.57288 3.03327 -4.98061
upperback -5.74468 4.03182 -0.129577
thorax -3.17559 2.12853 2.74703
lowerneck -0.49945 -5.8373 -10.5814
upperneck 7.74798 -8.65112 12.4109
head 3.3673 -4.28537 5.19532
rclavicle -1.40143e-014 9.54166e-015
rhumerus -35.8664 -15.011 -90.8864
rradius 44.9552
rwrist -14.3632
rhand 2.40315 52.7934
rfingers 7.12502
rthumb 27.8901 24.8442
lclavicle -1.40143e-014 9.54166e-015
lhumerus -47.2198 24.0459 74.102
lradius 37.6894
lwrist -15.0969
lhand -16.9406 44.7537
lfingers 7.12502
lthumb 9.29262 74.5289
rfemur -11.3282 1.36816 15.2479
rtibia 25.1344
rfoot -23.7909 -16.0059
rtoes -13.3297
lfemur -14.0061 -0.778884 -24.4172
ltibia 32.9105
lfoot -26.0123 1.87969
ltoes -15.0972
135
root 26.1131 15.8904 -0.832555 -33.6838 -88.4855 38.3316
lowerback -5.55052 3.01202 -5.09167
upperback -5.65145 4.01362 -0.0901732
thorax -3.10051 2.12282 2.85102
lowerneck -0.496023 -5.85691 -10.5239
upperneck 7.79527 -8.66992 12.2661
head 3.37457 -4.29647 5.1393
rclavicle -2.20651e-014 1.39149e-014
rhumerus -35.7834 -15.4724 -90.5684
rradius 43.7685
rwrist -13.1968
rhand 2.41473 52.7853
rfingers 7.12502
rthumb 27.9012 24.8378
lclavicle -2.20651e-014 1.39149e-014
lhumerus -47.0951 24.2441 74.5836
lradius 37.5602
lwrist -15.2937
lhand -17.0824 44.8295
lfingers 7.12502
lthumb 9.15586 74.6107
rfemur -11.2824 1.46878 15.0884
rtibia 25.2838
rfoot -23.7626 -16.226
rtoes -13.3739
lfemur -13.9041 -0.690361 -24.5742
ltibia 32.8908
lfoot -25.9736 1.65853
ltoes -14.8028
136
root 26.1259 15.8884 -0.808497 -37.0352 -88.6764 41.705
lowerback -5.65252 3.08819 -5.15195
upperback -5.59136 4.12758 -0.0158187
thorax -3.00178 2.1811 2.9711
lowerneck -0.529573 -5.88144 -10.5209
upperneck 7.84305 -8.69872 12.2063
head 3.39522 -4.31047 5.11702
rclavicle 4.69629e-015 4.96962e-015
rhumerus -35.7683 -16.0777 -90.1551
rradius 42.5258
rwrist -11.9657
rhand 2.57458 52.84
rfingers 7.12502
rthumb 28.054 24.9175
lclavicle 4.69629e-015 4.96962e-015
lhumerus -46.9182 24.495 75.0367
lradius 37.3397
lwrist -15.6683
lhand -17.3792 44.9201
lfingers 7.12502
lthumb 8.86944 74.7137
rfemur -11.5111 1.68508 15.0351
rtibia 25.4737
rfoot -23.6947 -16.2817
rtoes -13.4944
lfemur -13.9541 -0.405223 -24.6122
ltibia 32.8578
lfoot -25.8923 1.49258
ltoes -14.5209
137
root 26.1366 15.8832 -0.77791 -35.2772 -88.4837 39.7904
lowerback -5.52435 3.04209 -5.21342
upperback -5.49796 4.06874 -0.0253583
thorax -2.97387 2.15325 2.99016
lowerneck -0.625117 -5.90077 -10.6144
upperneck 7.96015 -8.73589 12.3101
head 3.45876 -4.32472 5.15879
rclavicle -2.84511e-014 -1.39149e-015
rhumerus -35.8363 -16.7711 -89.6888
rradius 41.2189
rwrist -10.7162
rhand 2.74464 53.0579
rfingers 7.12502
rthumb 28.2165 25.1621
lclavicle -2.84511e-014 -1.39149e-015
lhumerus -46.7117 24.6904 75.4574
lradius 37.079
lwrist -16.0075
lhand -17.7108 45.0816
lfingers 7.12502
lthumb 8.54947 74.8886
rfemur -11.4526 1.65129 14.8241
rtibia 25.6669
rfoot -23.7524 -16.407
rtoes -13.5389
lfemur -13.8372 -0.490616 -24.8175
ltibia 32.8465
lfoot -25.7795 1.35467
ltoes -14.2785
138
root 26.1504 15.8774 -0.740314 -37.0195 -88.3593 41.3776
lowerback -5.3035 3.07246 -5.22423
upperback -5.46753 4.10041 -0.0646203
thorax -3.06575 2.17139 2.94376
lowerneck -0.59517 -5.93818 -10.6861
upperneck 8.01758 -8.80514 12.4148
head 3.4865 -4.35931 5.19978
rclavicle 2.25621e-014 2.127e-014
rhumerus -36.0228 -17.6242 -89.047
rradius 39.8188
rwrist -9.32653
rhand 2.7285 53.2816
rfingers 7.12502
rthumb 28.2011 25.3833
lclavicle 2.25621e-014 2.127e-014
lhumerus -46.581 24.7124 75.9495
lradius 36.8844
lwrist -16.1704
lhand -17.7471 45.3871
lfingers 7.12502
lthumb 8.51442 75.1954
rfemur -11.4549 1.5387 14.5405
rtibia 25.8674
rfoot -23.6656 -16.383
rtoes -13.4823
lfemur -13.7614 -0.464052 -25.1002
ltibia 32.8676
lfoot -25.7189 1.27421
ltoes -14.1192
139
root 26.1641 15.8733 -0.706333 -37.7414 -88.3577 42.0743
lowerback -5.28638 3.1306 -5.1947
upperback -5.43095 4.17872 -0.0740574
thorax -3.0409 2.20876 2.91884
lowerneck -0.511118 -5.9789 -10.7141
upperneck 7.97509 -8.87104 12.4852
head 3.4719 -4.39422 5.22543
rclavicle -3.4017e-014 -5.56597e-015
rhumerus -36.1457 -18.6452 -88.2852
rradius 38.3501
rwrist -7.82769
rhand 2.68785 53.1642
rfingers 7.12502
rthumb 28.1622 25.2595
lclavicle -3.4017e-014 -5.56597e-015
lhumerus -46.3824 24.6436 76.5281
lradius 36.745
lwrist -16.2841
lhand -17.7093 45.8276
lfingers 7.12502
lthumb 8.55086 75.6345
rfemur -11.619 1.45176 14.3764
rtibia 26.0768
rfoot -23.5437 -16.3722
rtoes -13.421
lfemur -13.8334 -0.295235 -25.2615
ltibia 32.8936
lfoot -25.6978 1.1216
ltoes -13.7892
140
root 26.1769 15.8682 -0.67643 -37.3783 -88.3028 41.6954
lowerback -5.31882 3.12291 -5.22283
upperback -5.35269 4.17648 -0.0716084
thorax -2.94299 2.20612 2.94189
lowerneck -0.517079 -6.0058 -10.7616
upperneck 7.9597 -8.91252 12.5684
head 3.47902 -4.41363 5.25665
rclavicle 1.26725e-015 -1.05356e-014
rhumerus -36.2485 -19.7203 -87.471
rradius 36.8578
rwrist -6.23853
rhand 3.02682 52.9449
rfingers 7.12502
rthumb 28.4862 25.0939
lclavicle 1.26725e-015 -1.05356e-014
lhumerus -46.153 24.814 76.9216
lradius 36.5425
lwrist -16.7982
lhand -17.4209 45.2688
lfingers 7.12502
lthumb 8.82921 75.0641
rfemur -11.779 1.38852 14.2255
rtibia 26.3044
rfoot -23.4017 -16.4059
rtoes -13.6476
lfemur -13.909 -0.202604 -25.4092
ltibia 32.9192
lfoot -25.6756 0.949019
ltoes -13.2708
141
root 26.1878 15.8623 -0.648556 -34.4185 -88.0421 38.5573
lowerback -5.16286 3.02534 -5.33171
upperback -5.23569 4.05051 -0.0666539
thorax -2.90475 2.1462 3.00076
lowerneck -0.483371 -5.99755 -10.8645
upperneck 7.91965 -8.91202 12.7168
head 3.47229 -4.41378 5.32148
rclavicle 3.72721e-015 -4.37326e-015
rhumerus -36.4506 -20.8991 -86.5215
rradius 35.3544
rwrist -4.53696
rhand 3.78255 52.9527
rfingers 7.12502
rthumb 29.2081 25.2249
lclavicle 3.72721e-015 -4.37326e-015
lhumerus -46.0784 25.3851 76.7994
lradius 36.1354
lwrist -18.4632
lhand -16.1107 43.1126
lfingers 7.12502
lthumb 10.0934 72.8506
rfemur -11.7182 1.30992 14.0499
rtibia 26.604
rfoot -23.3365 -16.5688
rtoes -14.2714
lfemur -13.7928 -0.22846 -25.5888
ltibia 32.9321
lfoot -25.6417 0.682511
ltoes -13.0387
142
root 26.2037 15.8502 -0.607218 -27.1712 -87.328 30.7603
lowerback -4.54041 2.8021 -5.21626
upperback -5.02775 3.73283 -0.127275
thorax -2.99118 1.98567 2.84319
lowerneck -0.410602 -6.00258 -10.9201
upperneck 7.84537 -8.922 12.7778
head 3.44436 -4.42165 5.35196
rclavicle -2.95444e-014 -7.7526e-015
rhumerus -36.7247 -22.3001 -85.3797
rradius 33.8052
rwrist -2.73771
rhand 4.3019 53.0733
rfingers 7.12502
rthumb 29.7039 25.4329
lclavicle -2.95444e-014 -7.7526e-015
lhumerus -45.6836 24.7817 77.8339
lradius 36.1689
lwrist -17.4852
lhand -17.5134 44.5436
lfingers 7.12502
lthumb 8.7399 74.3426
rfemur -11.1881 0.788849 13.7945
rtibia 26.9917
rfoot -23.5459 -16.7433
rtoes -14.514
lfemur -13.2878 -0.701994 -25.8584
ltibia 32.925
lfoot -25.5918 0.402334
ltoes -12.9325
